<?xml version="1.0" standalone="no"?>
<!DOCTYPE svg PUBLIC "-//W3C//DTD SVG 20010904//EN"
 "http://www.w3.org/TR/2001/REC-SVG-20010904/DTD/svg10.dtd">
<svg version="1.0" xmlns="http://www.w3.org/2000/svg"
 width="108.000000pt" height="108.000000pt" viewBox="0 0 108.000000 108.000000"
 preserveAspectRatio="xMidYMid meet">
<metadata>
Created by potrace 1.14, written by Peter Selinger 2001-2017
</metadata>
<g transform="translate(0.000000,108.000000) scale(0.100000,-0.100000)"
fill="#000000" stroke="none">
<path d="M803 1065 c1 -5 -5 -8 -13 -7 -8 2 -12 0 -7 -4 4 -4 18 -10 30 -12
49 -8 107 -32 107 -43 0 -20 2 -25 24 -54 34 -45 56 -94 45 -101 -5 -3 -6 -11
-2 -17 11 -17 15 -140 5 -133 -5 3 -9 -1 -9 -9 0 -8 3 -12 7 -10 4 2 7 -2 7
-10 0 -8 -4 -12 -9 -9 -4 3 -8 -47 -8 -111 0 -64 -4 -114 -8 -111 -5 3 -9 -1
-9 -9 0 -8 4 -12 9 -9 4 3 8 -2 8 -11 0 -9 -4 -14 -8 -11 -5 3 -9 -1 -9 -9 0
-8 3 -12 7 -10 4 2 7 -2 7 -10 0 -8 -4 -12 -9 -9 -7 5 -11 -18 -11 -68 0 -10
-3 -15 -7 -13 -4 3 -11 -5 -16 -18 -5 -13 -11 119 -14 316 -6 398 5 368 -127
366 l-83 -1 0 -119 0 -119 -167 2 -168 3 -3 117 -3 117 -104 0 -105 -1 0 -374
0 -374 50 0 50 0 2 213 3 212 264 3 c186 2 268 -1 277 -9 11 -9 14 -55 14
-215 l0 -204 30 0 c17 0 30 -3 30 -8 0 -9 -77 -45 -102 -48 -56 -6 -54 -5 -33
-14 18 -8 17 -9 -8 -9 -16 -1 -26 -4 -23 -9 2 -4 -15 -8 -39 -8 -24 0 -42 4
-39 7 3 6 -26 5 -33 -1 -2 -2 -15 -3 -30 -4 -16 -1 -34 -5 -42 -10 -9 -6 -12
-5 -8 1 3 5 0 10 -8 10 -8 0 -12 -4 -9 -9 3 -4 -2 -8 -11 -8 -9 0 -14 4 -11 8
3 5 -1 9 -9 9 -8 0 -11 -5 -8 -10 4 -7 -19 -8 -66 -4 -39 3 -69 2 -66 -3 6 -9
-14 -8 -31 3 -6 3 -14 3 -18 0 -9 -9 -56 -12 -53 -4 1 3 -2 6 -8 6 -5 0 -9 -4
-7 -10 2 -5 -5 -2 -16 8 -10 9 -22 15 -25 12 -4 -3 -5 -2 -2 1 2 4 -11 25 -31
47 -31 33 -66 96 -68 119 -2 19 -12 14 -12 -7 0 -13 3 -22 6 -20 4 2 7 -2 7
-10 0 -11 -4 -12 -13 -4 -11 9 -24 78 -29 148 0 14 -8 25 -17 27 -17 2 -18
-12 -4 -35 6 -10 5 -12 -2 -7 -9 5 -12 -39 -12 -173 l0 -181 540 0 540 0 0
541 0 540 -139 -3 c-87 -2 -139 -7 -138 -13z m55 -4 c2 -1 0 -6 -3 -11 -5 -8
-11 -8 -19 -1 -7 6 -17 7 -21 3 -5 -4 -5 -2 -2 5 6 9 18 10 45 4z m105 -89
c14 -15 14 -19 3 -19 -8 0 -14 5 -13 11 1 6 -4 10 -11 8 -8 -1 -11 2 -7 8 8
13 9 13 28 -8z m-748 -702 c3 -5 -1 -10 -9 -10 -9 0 -16 5 -16 10 0 6 4 10 9
10 6 0 13 -4 16 -10z m665 -6 c0 -2 -7 -4 -15 -4 -8 0 -15 4 -15 10 0 5 7 7
15 4 8 -4 15 -8 15 -10z"/>
<path d="M598 922 l-28 -3 0 -90 0 -89 50 0 50 0 0 89 c0 97 -3 101 -72 93z"/>
<path d="M280 578 l0 -23 255 0 255 0 0 23 0 22 -255 0 -255 0 0 -22z"/>
<path d="M143 165 c0 -19 32 -48 47 -43 6 2 -2 16 -18 31 -20 19 -29 23 -29
12z m28 -22 c13 -16 12 -17 -3 -4 -10 7 -18 15 -18 17 0 8 8 3 21 -13z"/>
<path d="M698 123 c7 -3 16 -2 19 1 4 3 -2 6 -13 5 -11 0 -14 -3 -6 -6z"/>
<path d="M256 92 c-3 -5 1 -9 9 -9 8 0 12 4 9 9 -3 4 -7 8 -9 8 -2 0 -6 -4 -9
-8z"/>
</g>
</svg>
